%FSLAX45Y45*%
G04 Gerber Fmt 4.5, Leading zero omitted, Abs format (unit mm)*
G04 Created by KiCad (PCBNEW (6.0.1)) date 2022-03-03 11:39:04*
%MOMM*%
%LPD*%
G01*
G04 APERTURE LIST*
%TA.AperFunction,Profile*%
%ADD10C,0.038100*%
%TD*%
%TA.AperFunction,Profile*%
%ADD11C,0.050000*%
%TD*%
%ADD12C,0.200000*%
%ADD13C,0.033020*%
%ADD14C,0.040000*%
%ADD15C,0.080000*%
%ADD16C,0.100000*%
%ADD17C,0.110000*%
G04 APERTURE END LIST*
D10*
X11000000Y-5800000D02*
X16800000Y-5800000D01*
X16800000Y-5800000D02*
X16800000Y-10800000D01*
X16800000Y-10800000D02*
X11000000Y-10800000D01*
X11000000Y-10800000D02*
X11000000Y-5800000D01*
D11*
X14150000Y-6410000D02*
G75*
G03*
X14150000Y-6410000I-250000J0D01*
G01*
D12*
D13*
X11597490Y-9745594D02*
X11630510Y-9778614D01*
X11630510Y-9745594D02*
X11597490Y-9778614D01*
X11851490Y-9818490D02*
X11884510Y-9851510D01*
X11884510Y-9818490D02*
X11851490Y-9851510D01*
X13723490Y-9611271D02*
X13756510Y-9644291D01*
X13756510Y-9611271D02*
X13723490Y-9644291D01*
X13858990Y-9316557D02*
X13892010Y-9349577D01*
X13892010Y-9316557D02*
X13858990Y-9349577D01*
X13883490Y-9758628D02*
X13916510Y-9791648D01*
X13916510Y-9758628D02*
X13883490Y-9791648D01*
X13969780Y-9463914D02*
X14002800Y-9496934D01*
X14002800Y-9463914D02*
X13969780Y-9496934D01*
X14645490Y-9818490D02*
X14678510Y-9851510D01*
X14678510Y-9818490D02*
X14645490Y-9851510D01*
X14899490Y-9818490D02*
X14932510Y-9851510D01*
X14932510Y-9818490D02*
X14899490Y-9851510D01*
X15153490Y-9818490D02*
X15186510Y-9851510D01*
X15186510Y-9818490D02*
X15153490Y-9851510D01*
X15407490Y-9818490D02*
X15440510Y-9851510D01*
X15440510Y-9818490D02*
X15407490Y-9851510D01*
X15661490Y-9818490D02*
X15694510Y-9851510D01*
X15694510Y-9818490D02*
X15661490Y-9851510D01*
X15915490Y-9818490D02*
X15948510Y-9851510D01*
X15948510Y-9818490D02*
X15915490Y-9851510D01*
X16169490Y-9818490D02*
X16202510Y-9851510D01*
X16202510Y-9818490D02*
X16169490Y-9851510D01*
D14*
X12480525Y-6968750D02*
G75*
G03*
X12480525Y-6968750I-20000J0D01*
G01*
X12879500Y-6724567D02*
G75*
G03*
X12879500Y-6724567I-20000J0D01*
G01*
D15*
X11207500Y-7497500D02*
X11207500Y-7577500D01*
X11167500Y-7537500D02*
X11247500Y-7537500D01*
X11207500Y-7751500D02*
X11207500Y-7831500D01*
X11167500Y-7791500D02*
X11247500Y-7791500D01*
X11207500Y-8005500D02*
X11207500Y-8085500D01*
X11167500Y-8045500D02*
X11247500Y-8045500D01*
X11207500Y-8259500D02*
X11207500Y-8339500D01*
X11167500Y-8299500D02*
X11247500Y-8299500D01*
X11207500Y-8513500D02*
X11207500Y-8593500D01*
X11167500Y-8553500D02*
X11247500Y-8553500D01*
X11207500Y-8767500D02*
X11207500Y-8847500D01*
X11167500Y-8807500D02*
X11247500Y-8807500D01*
X11207500Y-9021500D02*
X11207500Y-9101500D01*
X11167500Y-9061500D02*
X11247500Y-9061500D01*
X11350000Y-6157000D02*
X11350000Y-6237000D01*
X11310000Y-6197000D02*
X11390000Y-6197000D01*
X11350000Y-6411000D02*
X11350000Y-6491000D01*
X11310000Y-6451000D02*
X11390000Y-6451000D01*
X11350000Y-6801750D02*
X11350000Y-6881750D01*
X11310000Y-6841750D02*
X11390000Y-6841750D01*
X11350000Y-7055750D02*
X11350000Y-7135750D01*
X11310000Y-7095750D02*
X11390000Y-7095750D01*
X11675000Y-6157000D02*
X11675000Y-6237000D01*
X11635000Y-6197000D02*
X11715000Y-6197000D01*
X11675000Y-6411000D02*
X11675000Y-6491000D01*
X11635000Y-6451000D02*
X11715000Y-6451000D01*
X11675000Y-6801750D02*
X11675000Y-6881750D01*
X11635000Y-6841750D02*
X11715000Y-6841750D01*
X11675000Y-7055750D02*
X11675000Y-7135750D01*
X11635000Y-7095750D02*
X11715000Y-7095750D01*
X11969500Y-7497500D02*
X11969500Y-7577500D01*
X11929500Y-7537500D02*
X12009500Y-7537500D01*
X11969500Y-7751500D02*
X11969500Y-7831500D01*
X11929500Y-7791500D02*
X12009500Y-7791500D01*
X11969500Y-8005500D02*
X11969500Y-8085500D01*
X11929500Y-8045500D02*
X12009500Y-8045500D01*
X11969500Y-8259500D02*
X11969500Y-8339500D01*
X11929500Y-8299500D02*
X12009500Y-8299500D01*
X11969500Y-8513500D02*
X11969500Y-8593500D01*
X11929500Y-8553500D02*
X12009500Y-8553500D01*
X11969500Y-8767500D02*
X11969500Y-8847500D01*
X11929500Y-8807500D02*
X12009500Y-8807500D01*
X11969500Y-9021500D02*
X11969500Y-9101500D01*
X11929500Y-9061500D02*
X12009500Y-9061500D01*
X12000000Y-6157000D02*
X12000000Y-6237000D01*
X11960000Y-6197000D02*
X12040000Y-6197000D01*
X12000000Y-6411000D02*
X12000000Y-6491000D01*
X11960000Y-6451000D02*
X12040000Y-6451000D01*
X12000000Y-6801750D02*
X12000000Y-6881750D01*
X11960000Y-6841750D02*
X12040000Y-6841750D01*
X12000000Y-7055750D02*
X12000000Y-7135750D01*
X11960000Y-7095750D02*
X12040000Y-7095750D01*
X12325000Y-6157000D02*
X12325000Y-6237000D01*
X12285000Y-6197000D02*
X12365000Y-6197000D01*
X12325000Y-6411000D02*
X12325000Y-6491000D01*
X12285000Y-6451000D02*
X12365000Y-6451000D01*
X12325000Y-6801750D02*
X12325000Y-6881750D01*
X12285000Y-6841750D02*
X12365000Y-6841750D01*
X12325000Y-7055750D02*
X12325000Y-7135750D01*
X12285000Y-7095750D02*
X12365000Y-7095750D01*
X12325000Y-7497500D02*
X12325000Y-7577500D01*
X12285000Y-7537500D02*
X12365000Y-7537500D01*
X12325000Y-7997500D02*
X12325000Y-8077500D01*
X12285000Y-8037500D02*
X12365000Y-8037500D01*
X12325000Y-8521500D02*
X12325000Y-8601500D01*
X12285000Y-8561500D02*
X12365000Y-8561500D01*
X12325000Y-9021500D02*
X12325000Y-9101500D01*
X12285000Y-9061500D02*
X12365000Y-9061500D01*
X12732500Y-7130750D02*
X12732500Y-7210750D01*
X12692500Y-7170750D02*
X12772500Y-7170750D01*
X12732500Y-7498500D02*
X12732500Y-7578500D01*
X12692500Y-7538500D02*
X12772500Y-7538500D01*
X12732500Y-9022500D02*
X12732500Y-9102500D01*
X12692500Y-9062500D02*
X12772500Y-9062500D01*
X12986500Y-7498500D02*
X12986500Y-7578500D01*
X12946500Y-7538500D02*
X13026500Y-7538500D01*
X12986500Y-9022500D02*
X12986500Y-9102500D01*
X12946500Y-9062500D02*
X13026500Y-9062500D01*
X13232500Y-7130750D02*
X13232500Y-7210750D01*
X13192500Y-7170750D02*
X13272500Y-7170750D01*
X13240500Y-7498500D02*
X13240500Y-7578500D01*
X13200500Y-7538500D02*
X13280500Y-7538500D01*
X13240500Y-9022500D02*
X13240500Y-9102500D01*
X13200500Y-9062500D02*
X13280500Y-9062500D01*
X13494500Y-7498500D02*
X13494500Y-7578500D01*
X13454500Y-7538500D02*
X13534500Y-7538500D01*
X13494500Y-9022500D02*
X13494500Y-9102500D01*
X13454500Y-9062500D02*
X13534500Y-9062500D01*
X13748500Y-7498500D02*
X13748500Y-7578500D01*
X13708500Y-7538500D02*
X13788500Y-7538500D01*
X13748500Y-9022500D02*
X13748500Y-9102500D01*
X13708500Y-9062500D02*
X13788500Y-9062500D01*
X14002500Y-7498500D02*
X14002500Y-7578500D01*
X13962500Y-7538500D02*
X14042500Y-7538500D01*
X14002500Y-9022500D02*
X14002500Y-9102500D01*
X13962500Y-9062500D02*
X14042500Y-9062500D01*
X14256500Y-7498500D02*
X14256500Y-7578500D01*
X14216500Y-7538500D02*
X14296500Y-7538500D01*
X14256500Y-9022500D02*
X14256500Y-9102500D01*
X14216500Y-9062500D02*
X14296500Y-9062500D01*
X14510500Y-7498500D02*
X14510500Y-7578500D01*
X14470500Y-7538500D02*
X14550500Y-7538500D01*
X14510500Y-9022500D02*
X14510500Y-9102500D01*
X14470500Y-9062500D02*
X14550500Y-9062500D01*
X14764500Y-7498500D02*
X14764500Y-7578500D01*
X14724500Y-7538500D02*
X14804500Y-7538500D01*
X14764500Y-9022500D02*
X14764500Y-9102500D01*
X14724500Y-9062500D02*
X14804500Y-9062500D01*
X15018500Y-7498500D02*
X15018500Y-7578500D01*
X14978500Y-7538500D02*
X15058500Y-7538500D01*
X15018500Y-9022500D02*
X15018500Y-9102500D01*
X14978500Y-9062500D02*
X15058500Y-9062500D01*
X15272500Y-7498500D02*
X15272500Y-7578500D01*
X15232500Y-7538500D02*
X15312500Y-7538500D01*
X15272500Y-9022500D02*
X15272500Y-9102500D01*
X15232500Y-9062500D02*
X15312500Y-9062500D01*
X15526500Y-7498500D02*
X15526500Y-7578500D01*
X15486500Y-7538500D02*
X15566500Y-7538500D01*
X15526500Y-9022500D02*
X15526500Y-9102500D01*
X15486500Y-9062500D02*
X15566500Y-9062500D01*
X15780500Y-7498500D02*
X15780500Y-7578500D01*
X15740500Y-7538500D02*
X15820500Y-7538500D01*
X15780500Y-9022500D02*
X15780500Y-9102500D01*
X15740500Y-9062500D02*
X15820500Y-9062500D01*
X16034500Y-7498500D02*
X16034500Y-7578500D01*
X15994500Y-7538500D02*
X16074500Y-7538500D01*
X16034500Y-9022500D02*
X16034500Y-9102500D01*
X15994500Y-9062500D02*
X16074500Y-9062500D01*
X16288500Y-7498500D02*
X16288500Y-7578500D01*
X16248500Y-7538500D02*
X16328500Y-7538500D01*
X16288500Y-9022500D02*
X16288500Y-9102500D01*
X16248500Y-9062500D02*
X16328500Y-9062500D01*
X16542500Y-7498500D02*
X16542500Y-7578500D01*
X16502500Y-7538500D02*
X16582500Y-7538500D01*
X16542500Y-9022500D02*
X16542500Y-9102500D01*
X16502500Y-9062500D02*
X16582500Y-9062500D01*
D16*
X12749106Y-6157356D02*
X12749106Y-6086644D01*
X12678394Y-6086644D01*
X12678394Y-6157356D01*
X12749106Y-6157356D01*
X12749106Y-6411356D02*
X12749106Y-6340644D01*
X12678394Y-6340644D01*
X12678394Y-6411356D01*
X12749106Y-6411356D01*
X13109106Y-6157356D02*
X13109106Y-6086644D01*
X13038394Y-6086644D01*
X13038394Y-6157356D01*
X13109106Y-6157356D01*
X13109106Y-6411356D02*
X13109106Y-6340644D01*
X13038394Y-6340644D01*
X13038394Y-6411356D01*
X13109106Y-6411356D01*
X13469106Y-6157356D02*
X13469106Y-6086644D01*
X13398394Y-6086644D01*
X13398394Y-6157356D01*
X13469106Y-6157356D01*
X13469106Y-6411356D02*
X13469106Y-6340644D01*
X13398394Y-6340644D01*
X13398394Y-6411356D01*
X13469106Y-6411356D01*
X14401606Y-6157356D02*
X14401606Y-6086644D01*
X14330894Y-6086644D01*
X14330894Y-6157356D01*
X14401606Y-6157356D01*
X14401606Y-6411356D02*
X14401606Y-6340644D01*
X14330894Y-6340644D01*
X14330894Y-6411356D01*
X14401606Y-6411356D01*
X14761606Y-6153356D02*
X14761606Y-6082644D01*
X14690894Y-6082644D01*
X14690894Y-6153356D01*
X14761606Y-6153356D01*
X14761606Y-6407356D02*
X14761606Y-6336644D01*
X14690894Y-6336644D01*
X14690894Y-6407356D01*
X14761606Y-6407356D01*
X14761606Y-6661356D02*
X14761606Y-6590644D01*
X14690894Y-6590644D01*
X14690894Y-6661356D01*
X14761606Y-6661356D01*
X15053856Y-7206106D02*
X15053856Y-7135394D01*
X14983144Y-7135394D01*
X14983144Y-7206106D01*
X15053856Y-7206106D01*
X15121606Y-6157356D02*
X15121606Y-6086644D01*
X15050894Y-6086644D01*
X15050894Y-6157356D01*
X15121606Y-6157356D01*
X15121606Y-6411356D02*
X15121606Y-6340644D01*
X15050894Y-6340644D01*
X15050894Y-6411356D01*
X15121606Y-6411356D01*
X15307856Y-7206106D02*
X15307856Y-7135394D01*
X15237144Y-7135394D01*
X15237144Y-7206106D01*
X15307856Y-7206106D01*
X15561856Y-7206106D02*
X15561856Y-7135394D01*
X15491144Y-7135394D01*
X15491144Y-7206106D01*
X15561856Y-7206106D01*
D17*
X15975000Y-6130000D02*
X16030000Y-6075000D01*
X15975000Y-6020000D01*
X15920000Y-6075000D01*
X15975000Y-6130000D01*
X15975000Y-6580000D02*
X16030000Y-6525000D01*
X15975000Y-6470000D01*
X15920000Y-6525000D01*
X15975000Y-6580000D01*
X16625000Y-6130000D02*
X16680000Y-6075000D01*
X16625000Y-6020000D01*
X16570000Y-6075000D01*
X16625000Y-6130000D01*
X16625000Y-6580000D02*
X16680000Y-6525000D01*
X16625000Y-6470000D01*
X16570000Y-6525000D01*
X16625000Y-6580000D01*
D12*
X11255714Y-11112381D02*
X11255714Y-10912381D01*
X11303333Y-10912381D01*
X11331904Y-10921905D01*
X11350952Y-10940953D01*
X11360476Y-10960000D01*
X11370000Y-10998095D01*
X11370000Y-11026667D01*
X11360476Y-11064762D01*
X11350952Y-11083810D01*
X11331904Y-11102857D01*
X11303333Y-11112381D01*
X11255714Y-11112381D01*
X11455714Y-11112381D02*
X11455714Y-10979048D01*
X11455714Y-11017143D02*
X11465238Y-10998095D01*
X11474762Y-10988572D01*
X11493809Y-10979048D01*
X11512857Y-10979048D01*
X11579523Y-11112381D02*
X11579523Y-10979048D01*
X11579523Y-10912381D02*
X11570000Y-10921905D01*
X11579523Y-10931429D01*
X11589047Y-10921905D01*
X11579523Y-10912381D01*
X11579523Y-10931429D01*
X11703333Y-11112381D02*
X11684285Y-11102857D01*
X11674762Y-11083810D01*
X11674762Y-10912381D01*
X11808095Y-11112381D02*
X11789047Y-11102857D01*
X11779523Y-11083810D01*
X11779523Y-10912381D01*
X12036666Y-11112381D02*
X12036666Y-10912381D01*
X12103333Y-11055238D01*
X12170000Y-10912381D01*
X12170000Y-11112381D01*
X12350952Y-11112381D02*
X12350952Y-11007619D01*
X12341428Y-10988572D01*
X12322381Y-10979048D01*
X12284285Y-10979048D01*
X12265238Y-10988572D01*
X12350952Y-11102857D02*
X12331904Y-11112381D01*
X12284285Y-11112381D01*
X12265238Y-11102857D01*
X12255714Y-11083810D01*
X12255714Y-11064762D01*
X12265238Y-11045715D01*
X12284285Y-11036191D01*
X12331904Y-11036191D01*
X12350952Y-11026667D01*
X12446190Y-10979048D02*
X12446190Y-11179048D01*
X12446190Y-10988572D02*
X12465238Y-10979048D01*
X12503333Y-10979048D01*
X12522381Y-10988572D01*
X12531904Y-10998095D01*
X12541428Y-11017143D01*
X12541428Y-11074286D01*
X12531904Y-11093334D01*
X12522381Y-11102857D01*
X12503333Y-11112381D01*
X12465238Y-11112381D01*
X12446190Y-11102857D01*
X12627143Y-11093334D02*
X12636666Y-11102857D01*
X12627143Y-11112381D01*
X12617619Y-11102857D01*
X12627143Y-11093334D01*
X12627143Y-11112381D01*
X12627143Y-10988572D02*
X12636666Y-10998095D01*
X12627143Y-11007619D01*
X12617619Y-10998095D01*
X12627143Y-10988572D01*
X12627143Y-11007619D01*
D13*
X10965075Y-11425395D02*
X10998095Y-11458415D01*
X10998095Y-11425395D02*
X10965075Y-11458415D01*
D12*
X11293809Y-11332381D02*
X11312857Y-11332381D01*
X11331904Y-11341905D01*
X11341428Y-11351429D01*
X11350952Y-11370476D01*
X11360476Y-11408572D01*
X11360476Y-11456191D01*
X11350952Y-11494286D01*
X11341428Y-11513333D01*
X11331904Y-11522857D01*
X11312857Y-11532381D01*
X11293809Y-11532381D01*
X11274762Y-11522857D01*
X11265238Y-11513333D01*
X11255714Y-11494286D01*
X11246190Y-11456191D01*
X11246190Y-11408572D01*
X11255714Y-11370476D01*
X11265238Y-11351429D01*
X11274762Y-11341905D01*
X11293809Y-11332381D01*
X11446190Y-11513333D02*
X11455714Y-11522857D01*
X11446190Y-11532381D01*
X11436666Y-11522857D01*
X11446190Y-11513333D01*
X11446190Y-11532381D01*
X11522381Y-11332381D02*
X11646190Y-11332381D01*
X11579523Y-11408572D01*
X11608095Y-11408572D01*
X11627143Y-11418095D01*
X11636666Y-11427619D01*
X11646190Y-11446667D01*
X11646190Y-11494286D01*
X11636666Y-11513333D01*
X11627143Y-11522857D01*
X11608095Y-11532381D01*
X11550952Y-11532381D01*
X11531904Y-11522857D01*
X11522381Y-11513333D01*
X11712857Y-11332381D02*
X11836666Y-11332381D01*
X11770000Y-11408572D01*
X11798571Y-11408572D01*
X11817619Y-11418095D01*
X11827143Y-11427619D01*
X11836666Y-11446667D01*
X11836666Y-11494286D01*
X11827143Y-11513333D01*
X11817619Y-11522857D01*
X11798571Y-11532381D01*
X11741428Y-11532381D01*
X11722381Y-11522857D01*
X11712857Y-11513333D01*
X11960476Y-11332381D02*
X11979523Y-11332381D01*
X11998571Y-11341905D01*
X12008095Y-11351429D01*
X12017619Y-11370476D01*
X12027143Y-11408572D01*
X12027143Y-11456191D01*
X12017619Y-11494286D01*
X12008095Y-11513333D01*
X11998571Y-11522857D01*
X11979523Y-11532381D01*
X11960476Y-11532381D01*
X11941428Y-11522857D01*
X11931904Y-11513333D01*
X11922381Y-11494286D01*
X11912857Y-11456191D01*
X11912857Y-11408572D01*
X11922381Y-11370476D01*
X11931904Y-11351429D01*
X11941428Y-11341905D01*
X11960476Y-11332381D01*
X12112857Y-11532381D02*
X12112857Y-11399048D01*
X12112857Y-11418095D02*
X12122381Y-11408572D01*
X12141428Y-11399048D01*
X12170000Y-11399048D01*
X12189047Y-11408572D01*
X12198571Y-11427619D01*
X12198571Y-11532381D01*
X12198571Y-11427619D02*
X12208095Y-11408572D01*
X12227143Y-11399048D01*
X12255714Y-11399048D01*
X12274762Y-11408572D01*
X12284285Y-11427619D01*
X12284285Y-11532381D01*
X12379523Y-11532381D02*
X12379523Y-11399048D01*
X12379523Y-11418095D02*
X12389047Y-11408572D01*
X12408095Y-11399048D01*
X12436666Y-11399048D01*
X12455714Y-11408572D01*
X12465238Y-11427619D01*
X12465238Y-11532381D01*
X12465238Y-11427619D02*
X12474762Y-11408572D01*
X12493809Y-11399048D01*
X12522381Y-11399048D01*
X12541428Y-11408572D01*
X12550952Y-11427619D01*
X12550952Y-11532381D01*
X12941428Y-11322857D02*
X12770000Y-11580000D01*
X13198571Y-11332381D02*
X13217619Y-11332381D01*
X13236666Y-11341905D01*
X13246190Y-11351429D01*
X13255714Y-11370476D01*
X13265238Y-11408572D01*
X13265238Y-11456191D01*
X13255714Y-11494286D01*
X13246190Y-11513333D01*
X13236666Y-11522857D01*
X13217619Y-11532381D01*
X13198571Y-11532381D01*
X13179523Y-11522857D01*
X13170000Y-11513333D01*
X13160476Y-11494286D01*
X13150952Y-11456191D01*
X13150952Y-11408572D01*
X13160476Y-11370476D01*
X13170000Y-11351429D01*
X13179523Y-11341905D01*
X13198571Y-11332381D01*
X13350952Y-11513333D02*
X13360476Y-11522857D01*
X13350952Y-11532381D01*
X13341428Y-11522857D01*
X13350952Y-11513333D01*
X13350952Y-11532381D01*
X13484285Y-11332381D02*
X13503333Y-11332381D01*
X13522381Y-11341905D01*
X13531904Y-11351429D01*
X13541428Y-11370476D01*
X13550952Y-11408572D01*
X13550952Y-11456191D01*
X13541428Y-11494286D01*
X13531904Y-11513333D01*
X13522381Y-11522857D01*
X13503333Y-11532381D01*
X13484285Y-11532381D01*
X13465238Y-11522857D01*
X13455714Y-11513333D01*
X13446190Y-11494286D01*
X13436666Y-11456191D01*
X13436666Y-11408572D01*
X13446190Y-11370476D01*
X13455714Y-11351429D01*
X13465238Y-11341905D01*
X13484285Y-11332381D01*
X13741428Y-11532381D02*
X13627143Y-11532381D01*
X13684285Y-11532381D02*
X13684285Y-11332381D01*
X13665238Y-11360953D01*
X13646190Y-11380000D01*
X13627143Y-11389524D01*
X13808095Y-11332381D02*
X13931904Y-11332381D01*
X13865238Y-11408572D01*
X13893809Y-11408572D01*
X13912857Y-11418095D01*
X13922381Y-11427619D01*
X13931904Y-11446667D01*
X13931904Y-11494286D01*
X13922381Y-11513333D01*
X13912857Y-11522857D01*
X13893809Y-11532381D01*
X13836666Y-11532381D01*
X13817619Y-11522857D01*
X13808095Y-11513333D01*
X14055714Y-11332381D02*
X14074762Y-11332381D01*
X14093809Y-11341905D01*
X14103333Y-11351429D01*
X14112857Y-11370476D01*
X14122381Y-11408572D01*
X14122381Y-11456191D01*
X14112857Y-11494286D01*
X14103333Y-11513333D01*
X14093809Y-11522857D01*
X14074762Y-11532381D01*
X14055714Y-11532381D01*
X14036666Y-11522857D01*
X14027143Y-11513333D01*
X14017619Y-11494286D01*
X14008095Y-11456191D01*
X14008095Y-11408572D01*
X14017619Y-11370476D01*
X14027143Y-11351429D01*
X14036666Y-11341905D01*
X14055714Y-11332381D01*
X14198571Y-11332381D02*
X14198571Y-11370476D01*
X14274762Y-11332381D02*
X14274762Y-11370476D01*
X14570000Y-11608572D02*
X14560476Y-11599048D01*
X14541428Y-11570476D01*
X14531904Y-11551429D01*
X14522381Y-11522857D01*
X14512857Y-11475238D01*
X14512857Y-11437143D01*
X14522381Y-11389524D01*
X14531904Y-11360953D01*
X14541428Y-11341905D01*
X14560476Y-11313333D01*
X14570000Y-11303810D01*
X14750952Y-11532381D02*
X14636666Y-11532381D01*
X14693809Y-11532381D02*
X14693809Y-11332381D01*
X14674762Y-11360953D01*
X14655714Y-11380000D01*
X14636666Y-11389524D01*
X14817619Y-11332381D02*
X14941428Y-11332381D01*
X14874762Y-11408572D01*
X14903333Y-11408572D01*
X14922381Y-11418095D01*
X14931904Y-11427619D01*
X14941428Y-11446667D01*
X14941428Y-11494286D01*
X14931904Y-11513333D01*
X14922381Y-11522857D01*
X14903333Y-11532381D01*
X14846190Y-11532381D01*
X14827143Y-11522857D01*
X14817619Y-11513333D01*
X15179523Y-11532381D02*
X15179523Y-11332381D01*
X15265238Y-11532381D02*
X15265238Y-11427619D01*
X15255714Y-11408572D01*
X15236666Y-11399048D01*
X15208095Y-11399048D01*
X15189047Y-11408572D01*
X15179523Y-11418095D01*
X15389047Y-11532381D02*
X15370000Y-11522857D01*
X15360476Y-11513333D01*
X15350952Y-11494286D01*
X15350952Y-11437143D01*
X15360476Y-11418095D01*
X15370000Y-11408572D01*
X15389047Y-11399048D01*
X15417619Y-11399048D01*
X15436666Y-11408572D01*
X15446190Y-11418095D01*
X15455714Y-11437143D01*
X15455714Y-11494286D01*
X15446190Y-11513333D01*
X15436666Y-11522857D01*
X15417619Y-11532381D01*
X15389047Y-11532381D01*
X15570000Y-11532381D02*
X15550952Y-11522857D01*
X15541428Y-11503810D01*
X15541428Y-11332381D01*
X15722381Y-11522857D02*
X15703333Y-11532381D01*
X15665238Y-11532381D01*
X15646190Y-11522857D01*
X15636666Y-11503810D01*
X15636666Y-11427619D01*
X15646190Y-11408572D01*
X15665238Y-11399048D01*
X15703333Y-11399048D01*
X15722381Y-11408572D01*
X15731904Y-11427619D01*
X15731904Y-11446667D01*
X15636666Y-11465714D01*
X15808095Y-11522857D02*
X15827143Y-11532381D01*
X15865238Y-11532381D01*
X15884285Y-11522857D01*
X15893809Y-11503810D01*
X15893809Y-11494286D01*
X15884285Y-11475238D01*
X15865238Y-11465714D01*
X15836666Y-11465714D01*
X15817619Y-11456191D01*
X15808095Y-11437143D01*
X15808095Y-11427619D01*
X15817619Y-11408572D01*
X15836666Y-11399048D01*
X15865238Y-11399048D01*
X15884285Y-11408572D01*
X15960476Y-11608572D02*
X15970000Y-11599048D01*
X15989047Y-11570476D01*
X15998571Y-11551429D01*
X16008095Y-11522857D01*
X16017619Y-11475238D01*
X16017619Y-11437143D01*
X16008095Y-11389524D01*
X15998571Y-11360953D01*
X15989047Y-11341905D01*
X15970000Y-11313333D01*
X15960476Y-11303810D01*
D14*
X10998095Y-11705905D02*
G75*
G03*
X10998095Y-11705905I-20000J0D01*
G01*
D12*
X11293809Y-11596381D02*
X11312857Y-11596381D01*
X11331904Y-11605905D01*
X11341428Y-11615429D01*
X11350952Y-11634476D01*
X11360476Y-11672572D01*
X11360476Y-11720191D01*
X11350952Y-11758286D01*
X11341428Y-11777333D01*
X11331904Y-11786857D01*
X11312857Y-11796381D01*
X11293809Y-11796381D01*
X11274762Y-11786857D01*
X11265238Y-11777333D01*
X11255714Y-11758286D01*
X11246190Y-11720191D01*
X11246190Y-11672572D01*
X11255714Y-11634476D01*
X11265238Y-11615429D01*
X11274762Y-11605905D01*
X11293809Y-11596381D01*
X11446190Y-11777333D02*
X11455714Y-11786857D01*
X11446190Y-11796381D01*
X11436666Y-11786857D01*
X11446190Y-11777333D01*
X11446190Y-11796381D01*
X11627143Y-11663048D02*
X11627143Y-11796381D01*
X11579523Y-11586857D02*
X11531904Y-11729714D01*
X11655714Y-11729714D01*
X11770000Y-11596381D02*
X11789047Y-11596381D01*
X11808095Y-11605905D01*
X11817619Y-11615429D01*
X11827143Y-11634476D01*
X11836666Y-11672572D01*
X11836666Y-11720191D01*
X11827143Y-11758286D01*
X11817619Y-11777333D01*
X11808095Y-11786857D01*
X11789047Y-11796381D01*
X11770000Y-11796381D01*
X11750952Y-11786857D01*
X11741428Y-11777333D01*
X11731904Y-11758286D01*
X11722381Y-11720191D01*
X11722381Y-11672572D01*
X11731904Y-11634476D01*
X11741428Y-11615429D01*
X11750952Y-11605905D01*
X11770000Y-11596381D01*
X11960476Y-11596381D02*
X11979523Y-11596381D01*
X11998571Y-11605905D01*
X12008095Y-11615429D01*
X12017619Y-11634476D01*
X12027143Y-11672572D01*
X12027143Y-11720191D01*
X12017619Y-11758286D01*
X12008095Y-11777333D01*
X11998571Y-11786857D01*
X11979523Y-11796381D01*
X11960476Y-11796381D01*
X11941428Y-11786857D01*
X11931904Y-11777333D01*
X11922381Y-11758286D01*
X11912857Y-11720191D01*
X11912857Y-11672572D01*
X11922381Y-11634476D01*
X11931904Y-11615429D01*
X11941428Y-11605905D01*
X11960476Y-11596381D01*
X12112857Y-11796381D02*
X12112857Y-11663048D01*
X12112857Y-11682095D02*
X12122381Y-11672572D01*
X12141428Y-11663048D01*
X12170000Y-11663048D01*
X12189047Y-11672572D01*
X12198571Y-11691619D01*
X12198571Y-11796381D01*
X12198571Y-11691619D02*
X12208095Y-11672572D01*
X12227143Y-11663048D01*
X12255714Y-11663048D01*
X12274762Y-11672572D01*
X12284285Y-11691619D01*
X12284285Y-11796381D01*
X12379523Y-11796381D02*
X12379523Y-11663048D01*
X12379523Y-11682095D02*
X12389047Y-11672572D01*
X12408095Y-11663048D01*
X12436666Y-11663048D01*
X12455714Y-11672572D01*
X12465238Y-11691619D01*
X12465238Y-11796381D01*
X12465238Y-11691619D02*
X12474762Y-11672572D01*
X12493809Y-11663048D01*
X12522381Y-11663048D01*
X12541428Y-11672572D01*
X12550952Y-11691619D01*
X12550952Y-11796381D01*
X12941428Y-11586857D02*
X12770000Y-11844000D01*
X13198571Y-11596381D02*
X13217619Y-11596381D01*
X13236666Y-11605905D01*
X13246190Y-11615429D01*
X13255714Y-11634476D01*
X13265238Y-11672572D01*
X13265238Y-11720191D01*
X13255714Y-11758286D01*
X13246190Y-11777333D01*
X13236666Y-11786857D01*
X13217619Y-11796381D01*
X13198571Y-11796381D01*
X13179523Y-11786857D01*
X13170000Y-11777333D01*
X13160476Y-11758286D01*
X13150952Y-11720191D01*
X13150952Y-11672572D01*
X13160476Y-11634476D01*
X13170000Y-11615429D01*
X13179523Y-11605905D01*
X13198571Y-11596381D01*
X13350952Y-11777333D02*
X13360476Y-11786857D01*
X13350952Y-11796381D01*
X13341428Y-11786857D01*
X13350952Y-11777333D01*
X13350952Y-11796381D01*
X13484285Y-11596381D02*
X13503333Y-11596381D01*
X13522381Y-11605905D01*
X13531904Y-11615429D01*
X13541428Y-11634476D01*
X13550952Y-11672572D01*
X13550952Y-11720191D01*
X13541428Y-11758286D01*
X13531904Y-11777333D01*
X13522381Y-11786857D01*
X13503333Y-11796381D01*
X13484285Y-11796381D01*
X13465238Y-11786857D01*
X13455714Y-11777333D01*
X13446190Y-11758286D01*
X13436666Y-11720191D01*
X13436666Y-11672572D01*
X13446190Y-11634476D01*
X13455714Y-11615429D01*
X13465238Y-11605905D01*
X13484285Y-11596381D01*
X13741428Y-11796381D02*
X13627143Y-11796381D01*
X13684285Y-11796381D02*
X13684285Y-11596381D01*
X13665238Y-11624953D01*
X13646190Y-11644000D01*
X13627143Y-11653524D01*
X13922381Y-11596381D02*
X13827143Y-11596381D01*
X13817619Y-11691619D01*
X13827143Y-11682095D01*
X13846190Y-11672572D01*
X13893809Y-11672572D01*
X13912857Y-11682095D01*
X13922381Y-11691619D01*
X13931904Y-11710667D01*
X13931904Y-11758286D01*
X13922381Y-11777333D01*
X13912857Y-11786857D01*
X13893809Y-11796381D01*
X13846190Y-11796381D01*
X13827143Y-11786857D01*
X13817619Y-11777333D01*
X13998571Y-11596381D02*
X14131904Y-11596381D01*
X14046190Y-11796381D01*
X14198571Y-11596381D02*
X14198571Y-11634476D01*
X14274762Y-11596381D02*
X14274762Y-11634476D01*
X14570000Y-11872572D02*
X14560476Y-11863048D01*
X14541428Y-11834476D01*
X14531904Y-11815429D01*
X14522381Y-11786857D01*
X14512857Y-11739238D01*
X14512857Y-11701143D01*
X14522381Y-11653524D01*
X14531904Y-11624953D01*
X14541428Y-11605905D01*
X14560476Y-11577333D01*
X14570000Y-11567810D01*
X14636666Y-11615429D02*
X14646190Y-11605905D01*
X14665238Y-11596381D01*
X14712857Y-11596381D01*
X14731904Y-11605905D01*
X14741428Y-11615429D01*
X14750952Y-11634476D01*
X14750952Y-11653524D01*
X14741428Y-11682095D01*
X14627143Y-11796381D01*
X14750952Y-11796381D01*
X14989047Y-11796381D02*
X14989047Y-11596381D01*
X15074762Y-11796381D02*
X15074762Y-11691619D01*
X15065238Y-11672572D01*
X15046190Y-11663048D01*
X15017619Y-11663048D01*
X14998571Y-11672572D01*
X14989047Y-11682095D01*
X15198571Y-11796381D02*
X15179523Y-11786857D01*
X15170000Y-11777333D01*
X15160476Y-11758286D01*
X15160476Y-11701143D01*
X15170000Y-11682095D01*
X15179523Y-11672572D01*
X15198571Y-11663048D01*
X15227143Y-11663048D01*
X15246190Y-11672572D01*
X15255714Y-11682095D01*
X15265238Y-11701143D01*
X15265238Y-11758286D01*
X15255714Y-11777333D01*
X15246190Y-11786857D01*
X15227143Y-11796381D01*
X15198571Y-11796381D01*
X15379523Y-11796381D02*
X15360476Y-11786857D01*
X15350952Y-11767810D01*
X15350952Y-11596381D01*
X15531904Y-11786857D02*
X15512857Y-11796381D01*
X15474762Y-11796381D01*
X15455714Y-11786857D01*
X15446190Y-11767810D01*
X15446190Y-11691619D01*
X15455714Y-11672572D01*
X15474762Y-11663048D01*
X15512857Y-11663048D01*
X15531904Y-11672572D01*
X15541428Y-11691619D01*
X15541428Y-11710667D01*
X15446190Y-11729714D01*
X15617619Y-11786857D02*
X15636666Y-11796381D01*
X15674762Y-11796381D01*
X15693809Y-11786857D01*
X15703333Y-11767810D01*
X15703333Y-11758286D01*
X15693809Y-11739238D01*
X15674762Y-11729714D01*
X15646190Y-11729714D01*
X15627143Y-11720191D01*
X15617619Y-11701143D01*
X15617619Y-11691619D01*
X15627143Y-11672572D01*
X15646190Y-11663048D01*
X15674762Y-11663048D01*
X15693809Y-11672572D01*
X15770000Y-11872572D02*
X15779523Y-11863048D01*
X15798571Y-11834476D01*
X15808095Y-11815429D01*
X15817619Y-11786857D01*
X15827143Y-11739238D01*
X15827143Y-11701143D01*
X15817619Y-11653524D01*
X15808095Y-11624953D01*
X15798571Y-11605905D01*
X15779523Y-11577333D01*
X15770000Y-11567810D01*
D15*
X10958095Y-11929905D02*
X10958095Y-12009905D01*
X10918095Y-11969905D02*
X10998095Y-11969905D01*
D12*
X11293809Y-11860381D02*
X11312857Y-11860381D01*
X11331904Y-11869905D01*
X11341428Y-11879429D01*
X11350952Y-11898476D01*
X11360476Y-11936572D01*
X11360476Y-11984191D01*
X11350952Y-12022286D01*
X11341428Y-12041333D01*
X11331904Y-12050857D01*
X11312857Y-12060381D01*
X11293809Y-12060381D01*
X11274762Y-12050857D01*
X11265238Y-12041333D01*
X11255714Y-12022286D01*
X11246190Y-11984191D01*
X11246190Y-11936572D01*
X11255714Y-11898476D01*
X11265238Y-11879429D01*
X11274762Y-11869905D01*
X11293809Y-11860381D01*
X11446190Y-12041333D02*
X11455714Y-12050857D01*
X11446190Y-12060381D01*
X11436666Y-12050857D01*
X11446190Y-12041333D01*
X11446190Y-12060381D01*
X11570000Y-11946095D02*
X11550952Y-11936572D01*
X11541428Y-11927048D01*
X11531904Y-11908000D01*
X11531904Y-11898476D01*
X11541428Y-11879429D01*
X11550952Y-11869905D01*
X11570000Y-11860381D01*
X11608095Y-11860381D01*
X11627143Y-11869905D01*
X11636666Y-11879429D01*
X11646190Y-11898476D01*
X11646190Y-11908000D01*
X11636666Y-11927048D01*
X11627143Y-11936572D01*
X11608095Y-11946095D01*
X11570000Y-11946095D01*
X11550952Y-11955619D01*
X11541428Y-11965143D01*
X11531904Y-11984191D01*
X11531904Y-12022286D01*
X11541428Y-12041333D01*
X11550952Y-12050857D01*
X11570000Y-12060381D01*
X11608095Y-12060381D01*
X11627143Y-12050857D01*
X11636666Y-12041333D01*
X11646190Y-12022286D01*
X11646190Y-11984191D01*
X11636666Y-11965143D01*
X11627143Y-11955619D01*
X11608095Y-11946095D01*
X11770000Y-11860381D02*
X11789047Y-11860381D01*
X11808095Y-11869905D01*
X11817619Y-11879429D01*
X11827143Y-11898476D01*
X11836666Y-11936572D01*
X11836666Y-11984191D01*
X11827143Y-12022286D01*
X11817619Y-12041333D01*
X11808095Y-12050857D01*
X11789047Y-12060381D01*
X11770000Y-12060381D01*
X11750952Y-12050857D01*
X11741428Y-12041333D01*
X11731904Y-12022286D01*
X11722381Y-11984191D01*
X11722381Y-11936572D01*
X11731904Y-11898476D01*
X11741428Y-11879429D01*
X11750952Y-11869905D01*
X11770000Y-11860381D01*
X11960476Y-11860381D02*
X11979523Y-11860381D01*
X11998571Y-11869905D01*
X12008095Y-11879429D01*
X12017619Y-11898476D01*
X12027143Y-11936572D01*
X12027143Y-11984191D01*
X12017619Y-12022286D01*
X12008095Y-12041333D01*
X11998571Y-12050857D01*
X11979523Y-12060381D01*
X11960476Y-12060381D01*
X11941428Y-12050857D01*
X11931904Y-12041333D01*
X11922381Y-12022286D01*
X11912857Y-11984191D01*
X11912857Y-11936572D01*
X11922381Y-11898476D01*
X11931904Y-11879429D01*
X11941428Y-11869905D01*
X11960476Y-11860381D01*
X12112857Y-12060381D02*
X12112857Y-11927048D01*
X12112857Y-11946095D02*
X12122381Y-11936572D01*
X12141428Y-11927048D01*
X12170000Y-11927048D01*
X12189047Y-11936572D01*
X12198571Y-11955619D01*
X12198571Y-12060381D01*
X12198571Y-11955619D02*
X12208095Y-11936572D01*
X12227143Y-11927048D01*
X12255714Y-11927048D01*
X12274762Y-11936572D01*
X12284285Y-11955619D01*
X12284285Y-12060381D01*
X12379523Y-12060381D02*
X12379523Y-11927048D01*
X12379523Y-11946095D02*
X12389047Y-11936572D01*
X12408095Y-11927048D01*
X12436666Y-11927048D01*
X12455714Y-11936572D01*
X12465238Y-11955619D01*
X12465238Y-12060381D01*
X12465238Y-11955619D02*
X12474762Y-11936572D01*
X12493809Y-11927048D01*
X12522381Y-11927048D01*
X12541428Y-11936572D01*
X12550952Y-11955619D01*
X12550952Y-12060381D01*
X12941428Y-11850857D02*
X12770000Y-12108000D01*
X13198571Y-11860381D02*
X13217619Y-11860381D01*
X13236666Y-11869905D01*
X13246190Y-11879429D01*
X13255714Y-11898476D01*
X13265238Y-11936572D01*
X13265238Y-11984191D01*
X13255714Y-12022286D01*
X13246190Y-12041333D01*
X13236666Y-12050857D01*
X13217619Y-12060381D01*
X13198571Y-12060381D01*
X13179523Y-12050857D01*
X13170000Y-12041333D01*
X13160476Y-12022286D01*
X13150952Y-11984191D01*
X13150952Y-11936572D01*
X13160476Y-11898476D01*
X13170000Y-11879429D01*
X13179523Y-11869905D01*
X13198571Y-11860381D01*
X13350952Y-12041333D02*
X13360476Y-12050857D01*
X13350952Y-12060381D01*
X13341428Y-12050857D01*
X13350952Y-12041333D01*
X13350952Y-12060381D01*
X13484285Y-11860381D02*
X13503333Y-11860381D01*
X13522381Y-11869905D01*
X13531904Y-11879429D01*
X13541428Y-11898476D01*
X13550952Y-11936572D01*
X13550952Y-11984191D01*
X13541428Y-12022286D01*
X13531904Y-12041333D01*
X13522381Y-12050857D01*
X13503333Y-12060381D01*
X13484285Y-12060381D01*
X13465238Y-12050857D01*
X13455714Y-12041333D01*
X13446190Y-12022286D01*
X13436666Y-11984191D01*
X13436666Y-11936572D01*
X13446190Y-11898476D01*
X13455714Y-11879429D01*
X13465238Y-11869905D01*
X13484285Y-11860381D01*
X13617619Y-11860381D02*
X13741428Y-11860381D01*
X13674762Y-11936572D01*
X13703333Y-11936572D01*
X13722381Y-11946095D01*
X13731904Y-11955619D01*
X13741428Y-11974667D01*
X13741428Y-12022286D01*
X13731904Y-12041333D01*
X13722381Y-12050857D01*
X13703333Y-12060381D01*
X13646190Y-12060381D01*
X13627143Y-12050857D01*
X13617619Y-12041333D01*
X13931904Y-12060381D02*
X13817619Y-12060381D01*
X13874762Y-12060381D02*
X13874762Y-11860381D01*
X13855714Y-11888953D01*
X13836666Y-11908000D01*
X13817619Y-11917524D01*
X14112857Y-11860381D02*
X14017619Y-11860381D01*
X14008095Y-11955619D01*
X14017619Y-11946095D01*
X14036666Y-11936572D01*
X14084285Y-11936572D01*
X14103333Y-11946095D01*
X14112857Y-11955619D01*
X14122381Y-11974667D01*
X14122381Y-12022286D01*
X14112857Y-12041333D01*
X14103333Y-12050857D01*
X14084285Y-12060381D01*
X14036666Y-12060381D01*
X14017619Y-12050857D01*
X14008095Y-12041333D01*
X14198571Y-11860381D02*
X14198571Y-11898476D01*
X14274762Y-11860381D02*
X14274762Y-11898476D01*
X14570000Y-12136572D02*
X14560476Y-12127048D01*
X14541428Y-12098476D01*
X14531904Y-12079429D01*
X14522381Y-12050857D01*
X14512857Y-12003238D01*
X14512857Y-11965143D01*
X14522381Y-11917524D01*
X14531904Y-11888953D01*
X14541428Y-11869905D01*
X14560476Y-11841333D01*
X14570000Y-11831810D01*
X14731904Y-11860381D02*
X14693809Y-11860381D01*
X14674762Y-11869905D01*
X14665238Y-11879429D01*
X14646190Y-11908000D01*
X14636666Y-11946095D01*
X14636666Y-12022286D01*
X14646190Y-12041333D01*
X14655714Y-12050857D01*
X14674762Y-12060381D01*
X14712857Y-12060381D01*
X14731904Y-12050857D01*
X14741428Y-12041333D01*
X14750952Y-12022286D01*
X14750952Y-11974667D01*
X14741428Y-11955619D01*
X14731904Y-11946095D01*
X14712857Y-11936572D01*
X14674762Y-11936572D01*
X14655714Y-11946095D01*
X14646190Y-11955619D01*
X14636666Y-11974667D01*
X14865238Y-11946095D02*
X14846190Y-11936572D01*
X14836666Y-11927048D01*
X14827143Y-11908000D01*
X14827143Y-11898476D01*
X14836666Y-11879429D01*
X14846190Y-11869905D01*
X14865238Y-11860381D01*
X14903333Y-11860381D01*
X14922381Y-11869905D01*
X14931904Y-11879429D01*
X14941428Y-11898476D01*
X14941428Y-11908000D01*
X14931904Y-11927048D01*
X14922381Y-11936572D01*
X14903333Y-11946095D01*
X14865238Y-11946095D01*
X14846190Y-11955619D01*
X14836666Y-11965143D01*
X14827143Y-11984191D01*
X14827143Y-12022286D01*
X14836666Y-12041333D01*
X14846190Y-12050857D01*
X14865238Y-12060381D01*
X14903333Y-12060381D01*
X14922381Y-12050857D01*
X14931904Y-12041333D01*
X14941428Y-12022286D01*
X14941428Y-11984191D01*
X14931904Y-11965143D01*
X14922381Y-11955619D01*
X14903333Y-11946095D01*
X15179523Y-12060381D02*
X15179523Y-11860381D01*
X15265238Y-12060381D02*
X15265238Y-11955619D01*
X15255714Y-11936572D01*
X15236666Y-11927048D01*
X15208095Y-11927048D01*
X15189047Y-11936572D01*
X15179523Y-11946095D01*
X15389047Y-12060381D02*
X15370000Y-12050857D01*
X15360476Y-12041333D01*
X15350952Y-12022286D01*
X15350952Y-11965143D01*
X15360476Y-11946095D01*
X15370000Y-11936572D01*
X15389047Y-11927048D01*
X15417619Y-11927048D01*
X15436666Y-11936572D01*
X15446190Y-11946095D01*
X15455714Y-11965143D01*
X15455714Y-12022286D01*
X15446190Y-12041333D01*
X15436666Y-12050857D01*
X15417619Y-12060381D01*
X15389047Y-12060381D01*
X15570000Y-12060381D02*
X15550952Y-12050857D01*
X15541428Y-12031810D01*
X15541428Y-11860381D01*
X15722381Y-12050857D02*
X15703333Y-12060381D01*
X15665238Y-12060381D01*
X15646190Y-12050857D01*
X15636666Y-12031810D01*
X15636666Y-11955619D01*
X15646190Y-11936572D01*
X15665238Y-11927048D01*
X15703333Y-11927048D01*
X15722381Y-11936572D01*
X15731904Y-11955619D01*
X15731904Y-11974667D01*
X15636666Y-11993714D01*
X15808095Y-12050857D02*
X15827143Y-12060381D01*
X15865238Y-12060381D01*
X15884285Y-12050857D01*
X15893809Y-12031810D01*
X15893809Y-12022286D01*
X15884285Y-12003238D01*
X15865238Y-11993714D01*
X15836666Y-11993714D01*
X15817619Y-11984191D01*
X15808095Y-11965143D01*
X15808095Y-11955619D01*
X15817619Y-11936572D01*
X15836666Y-11927048D01*
X15865238Y-11927048D01*
X15884285Y-11936572D01*
X15960476Y-12136572D02*
X15970000Y-12127048D01*
X15989047Y-12098476D01*
X15998571Y-12079429D01*
X16008095Y-12050857D01*
X16017619Y-12003238D01*
X16017619Y-11965143D01*
X16008095Y-11917524D01*
X15998571Y-11888953D01*
X15989047Y-11869905D01*
X15970000Y-11841333D01*
X15960476Y-11831810D01*
D16*
X10983451Y-12269261D02*
X10983451Y-12198549D01*
X10912739Y-12198549D01*
X10912739Y-12269261D01*
X10983451Y-12269261D01*
D12*
X11360476Y-12324381D02*
X11246190Y-12324381D01*
X11303333Y-12324381D02*
X11303333Y-12124381D01*
X11284285Y-12152953D01*
X11265238Y-12172000D01*
X11246190Y-12181524D01*
X11446190Y-12305333D02*
X11455714Y-12314857D01*
X11446190Y-12324381D01*
X11436666Y-12314857D01*
X11446190Y-12305333D01*
X11446190Y-12324381D01*
X11579523Y-12124381D02*
X11598571Y-12124381D01*
X11617619Y-12133905D01*
X11627143Y-12143429D01*
X11636666Y-12162476D01*
X11646190Y-12200572D01*
X11646190Y-12248191D01*
X11636666Y-12286286D01*
X11627143Y-12305333D01*
X11617619Y-12314857D01*
X11598571Y-12324381D01*
X11579523Y-12324381D01*
X11560476Y-12314857D01*
X11550952Y-12305333D01*
X11541428Y-12286286D01*
X11531904Y-12248191D01*
X11531904Y-12200572D01*
X11541428Y-12162476D01*
X11550952Y-12143429D01*
X11560476Y-12133905D01*
X11579523Y-12124381D01*
X11770000Y-12124381D02*
X11789047Y-12124381D01*
X11808095Y-12133905D01*
X11817619Y-12143429D01*
X11827143Y-12162476D01*
X11836666Y-12200572D01*
X11836666Y-12248191D01*
X11827143Y-12286286D01*
X11817619Y-12305333D01*
X11808095Y-12314857D01*
X11789047Y-12324381D01*
X11770000Y-12324381D01*
X11750952Y-12314857D01*
X11741428Y-12305333D01*
X11731904Y-12286286D01*
X11722381Y-12248191D01*
X11722381Y-12200572D01*
X11731904Y-12162476D01*
X11741428Y-12143429D01*
X11750952Y-12133905D01*
X11770000Y-12124381D01*
X11960476Y-12124381D02*
X11979523Y-12124381D01*
X11998571Y-12133905D01*
X12008095Y-12143429D01*
X12017619Y-12162476D01*
X12027143Y-12200572D01*
X12027143Y-12248191D01*
X12017619Y-12286286D01*
X12008095Y-12305333D01*
X11998571Y-12314857D01*
X11979523Y-12324381D01*
X11960476Y-12324381D01*
X11941428Y-12314857D01*
X11931904Y-12305333D01*
X11922381Y-12286286D01*
X11912857Y-12248191D01*
X11912857Y-12200572D01*
X11922381Y-12162476D01*
X11931904Y-12143429D01*
X11941428Y-12133905D01*
X11960476Y-12124381D01*
X12112857Y-12324381D02*
X12112857Y-12191048D01*
X12112857Y-12210095D02*
X12122381Y-12200572D01*
X12141428Y-12191048D01*
X12170000Y-12191048D01*
X12189047Y-12200572D01*
X12198571Y-12219619D01*
X12198571Y-12324381D01*
X12198571Y-12219619D02*
X12208095Y-12200572D01*
X12227143Y-12191048D01*
X12255714Y-12191048D01*
X12274762Y-12200572D01*
X12284285Y-12219619D01*
X12284285Y-12324381D01*
X12379523Y-12324381D02*
X12379523Y-12191048D01*
X12379523Y-12210095D02*
X12389047Y-12200572D01*
X12408095Y-12191048D01*
X12436666Y-12191048D01*
X12455714Y-12200572D01*
X12465238Y-12219619D01*
X12465238Y-12324381D01*
X12465238Y-12219619D02*
X12474762Y-12200572D01*
X12493809Y-12191048D01*
X12522381Y-12191048D01*
X12541428Y-12200572D01*
X12550952Y-12219619D01*
X12550952Y-12324381D01*
X12941428Y-12114857D02*
X12770000Y-12372000D01*
X13198571Y-12124381D02*
X13217619Y-12124381D01*
X13236666Y-12133905D01*
X13246190Y-12143429D01*
X13255714Y-12162476D01*
X13265238Y-12200572D01*
X13265238Y-12248191D01*
X13255714Y-12286286D01*
X13246190Y-12305333D01*
X13236666Y-12314857D01*
X13217619Y-12324381D01*
X13198571Y-12324381D01*
X13179523Y-12314857D01*
X13170000Y-12305333D01*
X13160476Y-12286286D01*
X13150952Y-12248191D01*
X13150952Y-12200572D01*
X13160476Y-12162476D01*
X13170000Y-12143429D01*
X13179523Y-12133905D01*
X13198571Y-12124381D01*
X13350952Y-12305333D02*
X13360476Y-12314857D01*
X13350952Y-12324381D01*
X13341428Y-12314857D01*
X13350952Y-12305333D01*
X13350952Y-12324381D01*
X13484285Y-12124381D02*
X13503333Y-12124381D01*
X13522381Y-12133905D01*
X13531904Y-12143429D01*
X13541428Y-12162476D01*
X13550952Y-12200572D01*
X13550952Y-12248191D01*
X13541428Y-12286286D01*
X13531904Y-12305333D01*
X13522381Y-12314857D01*
X13503333Y-12324381D01*
X13484285Y-12324381D01*
X13465238Y-12314857D01*
X13455714Y-12305333D01*
X13446190Y-12286286D01*
X13436666Y-12248191D01*
X13436666Y-12200572D01*
X13446190Y-12162476D01*
X13455714Y-12143429D01*
X13465238Y-12133905D01*
X13484285Y-12124381D01*
X13617619Y-12124381D02*
X13741428Y-12124381D01*
X13674762Y-12200572D01*
X13703333Y-12200572D01*
X13722381Y-12210095D01*
X13731904Y-12219619D01*
X13741428Y-12238667D01*
X13741428Y-12286286D01*
X13731904Y-12305333D01*
X13722381Y-12314857D01*
X13703333Y-12324381D01*
X13646190Y-12324381D01*
X13627143Y-12314857D01*
X13617619Y-12305333D01*
X13836666Y-12324381D02*
X13874762Y-12324381D01*
X13893809Y-12314857D01*
X13903333Y-12305333D01*
X13922381Y-12276762D01*
X13931904Y-12238667D01*
X13931904Y-12162476D01*
X13922381Y-12143429D01*
X13912857Y-12133905D01*
X13893809Y-12124381D01*
X13855714Y-12124381D01*
X13836666Y-12133905D01*
X13827143Y-12143429D01*
X13817619Y-12162476D01*
X13817619Y-12210095D01*
X13827143Y-12229143D01*
X13836666Y-12238667D01*
X13855714Y-12248191D01*
X13893809Y-12248191D01*
X13912857Y-12238667D01*
X13922381Y-12229143D01*
X13931904Y-12210095D01*
X14103333Y-12191048D02*
X14103333Y-12324381D01*
X14055714Y-12114857D02*
X14008095Y-12257714D01*
X14131904Y-12257714D01*
X14198571Y-12124381D02*
X14198571Y-12162476D01*
X14274762Y-12124381D02*
X14274762Y-12162476D01*
X14570000Y-12400572D02*
X14560476Y-12391048D01*
X14541428Y-12362476D01*
X14531904Y-12343429D01*
X14522381Y-12314857D01*
X14512857Y-12267238D01*
X14512857Y-12229143D01*
X14522381Y-12181524D01*
X14531904Y-12152953D01*
X14541428Y-12133905D01*
X14560476Y-12105333D01*
X14570000Y-12095810D01*
X14750952Y-12324381D02*
X14636666Y-12324381D01*
X14693809Y-12324381D02*
X14693809Y-12124381D01*
X14674762Y-12152953D01*
X14655714Y-12172000D01*
X14636666Y-12181524D01*
X14922381Y-12124381D02*
X14884285Y-12124381D01*
X14865238Y-12133905D01*
X14855714Y-12143429D01*
X14836666Y-12172000D01*
X14827143Y-12210095D01*
X14827143Y-12286286D01*
X14836666Y-12305333D01*
X14846190Y-12314857D01*
X14865238Y-12324381D01*
X14903333Y-12324381D01*
X14922381Y-12314857D01*
X14931904Y-12305333D01*
X14941428Y-12286286D01*
X14941428Y-12238667D01*
X14931904Y-12219619D01*
X14922381Y-12210095D01*
X14903333Y-12200572D01*
X14865238Y-12200572D01*
X14846190Y-12210095D01*
X14836666Y-12219619D01*
X14827143Y-12238667D01*
X15179523Y-12324381D02*
X15179523Y-12124381D01*
X15265238Y-12324381D02*
X15265238Y-12219619D01*
X15255714Y-12200572D01*
X15236666Y-12191048D01*
X15208095Y-12191048D01*
X15189047Y-12200572D01*
X15179523Y-12210095D01*
X15389047Y-12324381D02*
X15370000Y-12314857D01*
X15360476Y-12305333D01*
X15350952Y-12286286D01*
X15350952Y-12229143D01*
X15360476Y-12210095D01*
X15370000Y-12200572D01*
X15389047Y-12191048D01*
X15417619Y-12191048D01*
X15436666Y-12200572D01*
X15446190Y-12210095D01*
X15455714Y-12229143D01*
X15455714Y-12286286D01*
X15446190Y-12305333D01*
X15436666Y-12314857D01*
X15417619Y-12324381D01*
X15389047Y-12324381D01*
X15570000Y-12324381D02*
X15550952Y-12314857D01*
X15541428Y-12295810D01*
X15541428Y-12124381D01*
X15722381Y-12314857D02*
X15703333Y-12324381D01*
X15665238Y-12324381D01*
X15646190Y-12314857D01*
X15636666Y-12295810D01*
X15636666Y-12219619D01*
X15646190Y-12200572D01*
X15665238Y-12191048D01*
X15703333Y-12191048D01*
X15722381Y-12200572D01*
X15731904Y-12219619D01*
X15731904Y-12238667D01*
X15636666Y-12257714D01*
X15808095Y-12314857D02*
X15827143Y-12324381D01*
X15865238Y-12324381D01*
X15884285Y-12314857D01*
X15893809Y-12295810D01*
X15893809Y-12286286D01*
X15884285Y-12267238D01*
X15865238Y-12257714D01*
X15836666Y-12257714D01*
X15817619Y-12248191D01*
X15808095Y-12229143D01*
X15808095Y-12219619D01*
X15817619Y-12200572D01*
X15836666Y-12191048D01*
X15865238Y-12191048D01*
X15884285Y-12200572D01*
X15960476Y-12400572D02*
X15970000Y-12391048D01*
X15989047Y-12362476D01*
X15998571Y-12343429D01*
X16008095Y-12314857D01*
X16017619Y-12267238D01*
X16017619Y-12229143D01*
X16008095Y-12181524D01*
X15998571Y-12152953D01*
X15989047Y-12133905D01*
X15970000Y-12105333D01*
X15960476Y-12095810D01*
D17*
X10943095Y-12552905D02*
X10998095Y-12497905D01*
X10943095Y-12442905D01*
X10888095Y-12497905D01*
X10943095Y-12552905D01*
D12*
X11360476Y-12588381D02*
X11246190Y-12588381D01*
X11303333Y-12588381D02*
X11303333Y-12388381D01*
X11284285Y-12416953D01*
X11265238Y-12436000D01*
X11246190Y-12445524D01*
X11446190Y-12569333D02*
X11455714Y-12578857D01*
X11446190Y-12588381D01*
X11436666Y-12578857D01*
X11446190Y-12569333D01*
X11446190Y-12588381D01*
X11646190Y-12588381D02*
X11531904Y-12588381D01*
X11589047Y-12588381D02*
X11589047Y-12388381D01*
X11570000Y-12416953D01*
X11550952Y-12436000D01*
X11531904Y-12445524D01*
X11770000Y-12388381D02*
X11789047Y-12388381D01*
X11808095Y-12397905D01*
X11817619Y-12407429D01*
X11827143Y-12426476D01*
X11836666Y-12464572D01*
X11836666Y-12512191D01*
X11827143Y-12550286D01*
X11817619Y-12569333D01*
X11808095Y-12578857D01*
X11789047Y-12588381D01*
X11770000Y-12588381D01*
X11750952Y-12578857D01*
X11741428Y-12569333D01*
X11731904Y-12550286D01*
X11722381Y-12512191D01*
X11722381Y-12464572D01*
X11731904Y-12426476D01*
X11741428Y-12407429D01*
X11750952Y-12397905D01*
X11770000Y-12388381D01*
X11960476Y-12388381D02*
X11979523Y-12388381D01*
X11998571Y-12397905D01*
X12008095Y-12407429D01*
X12017619Y-12426476D01*
X12027143Y-12464572D01*
X12027143Y-12512191D01*
X12017619Y-12550286D01*
X12008095Y-12569333D01*
X11998571Y-12578857D01*
X11979523Y-12588381D01*
X11960476Y-12588381D01*
X11941428Y-12578857D01*
X11931904Y-12569333D01*
X11922381Y-12550286D01*
X11912857Y-12512191D01*
X11912857Y-12464572D01*
X11922381Y-12426476D01*
X11931904Y-12407429D01*
X11941428Y-12397905D01*
X11960476Y-12388381D01*
X12112857Y-12588381D02*
X12112857Y-12455048D01*
X12112857Y-12474095D02*
X12122381Y-12464572D01*
X12141428Y-12455048D01*
X12170000Y-12455048D01*
X12189047Y-12464572D01*
X12198571Y-12483619D01*
X12198571Y-12588381D01*
X12198571Y-12483619D02*
X12208095Y-12464572D01*
X12227143Y-12455048D01*
X12255714Y-12455048D01*
X12274762Y-12464572D01*
X12284285Y-12483619D01*
X12284285Y-12588381D01*
X12379523Y-12588381D02*
X12379523Y-12455048D01*
X12379523Y-12474095D02*
X12389047Y-12464572D01*
X12408095Y-12455048D01*
X12436666Y-12455048D01*
X12455714Y-12464572D01*
X12465238Y-12483619D01*
X12465238Y-12588381D01*
X12465238Y-12483619D02*
X12474762Y-12464572D01*
X12493809Y-12455048D01*
X12522381Y-12455048D01*
X12541428Y-12464572D01*
X12550952Y-12483619D01*
X12550952Y-12588381D01*
X12941428Y-12378857D02*
X12770000Y-12636000D01*
X13198571Y-12388381D02*
X13217619Y-12388381D01*
X13236666Y-12397905D01*
X13246190Y-12407429D01*
X13255714Y-12426476D01*
X13265238Y-12464572D01*
X13265238Y-12512191D01*
X13255714Y-12550286D01*
X13246190Y-12569333D01*
X13236666Y-12578857D01*
X13217619Y-12588381D01*
X13198571Y-12588381D01*
X13179523Y-12578857D01*
X13170000Y-12569333D01*
X13160476Y-12550286D01*
X13150952Y-12512191D01*
X13150952Y-12464572D01*
X13160476Y-12426476D01*
X13170000Y-12407429D01*
X13179523Y-12397905D01*
X13198571Y-12388381D01*
X13350952Y-12569333D02*
X13360476Y-12578857D01*
X13350952Y-12588381D01*
X13341428Y-12578857D01*
X13350952Y-12569333D01*
X13350952Y-12588381D01*
X13484285Y-12388381D02*
X13503333Y-12388381D01*
X13522381Y-12397905D01*
X13531904Y-12407429D01*
X13541428Y-12426476D01*
X13550952Y-12464572D01*
X13550952Y-12512191D01*
X13541428Y-12550286D01*
X13531904Y-12569333D01*
X13522381Y-12578857D01*
X13503333Y-12588381D01*
X13484285Y-12588381D01*
X13465238Y-12578857D01*
X13455714Y-12569333D01*
X13446190Y-12550286D01*
X13436666Y-12512191D01*
X13436666Y-12464572D01*
X13446190Y-12426476D01*
X13455714Y-12407429D01*
X13465238Y-12397905D01*
X13484285Y-12388381D01*
X13722381Y-12455048D02*
X13722381Y-12588381D01*
X13674762Y-12378857D02*
X13627143Y-12521714D01*
X13750952Y-12521714D01*
X13808095Y-12388381D02*
X13931904Y-12388381D01*
X13865238Y-12464572D01*
X13893809Y-12464572D01*
X13912857Y-12474095D01*
X13922381Y-12483619D01*
X13931904Y-12502667D01*
X13931904Y-12550286D01*
X13922381Y-12569333D01*
X13912857Y-12578857D01*
X13893809Y-12588381D01*
X13836666Y-12588381D01*
X13817619Y-12578857D01*
X13808095Y-12569333D01*
X13998571Y-12388381D02*
X14122381Y-12388381D01*
X14055714Y-12464572D01*
X14084285Y-12464572D01*
X14103333Y-12474095D01*
X14112857Y-12483619D01*
X14122381Y-12502667D01*
X14122381Y-12550286D01*
X14112857Y-12569333D01*
X14103333Y-12578857D01*
X14084285Y-12588381D01*
X14027143Y-12588381D01*
X14008095Y-12578857D01*
X13998571Y-12569333D01*
X14198571Y-12388381D02*
X14198571Y-12426476D01*
X14274762Y-12388381D02*
X14274762Y-12426476D01*
X14570000Y-12664572D02*
X14560476Y-12655048D01*
X14541428Y-12626476D01*
X14531904Y-12607429D01*
X14522381Y-12578857D01*
X14512857Y-12531238D01*
X14512857Y-12493143D01*
X14522381Y-12445524D01*
X14531904Y-12416953D01*
X14541428Y-12397905D01*
X14560476Y-12369333D01*
X14570000Y-12359810D01*
X14731904Y-12455048D02*
X14731904Y-12588381D01*
X14684285Y-12378857D02*
X14636666Y-12521714D01*
X14760476Y-12521714D01*
X14989047Y-12588381D02*
X14989047Y-12388381D01*
X15074762Y-12588381D02*
X15074762Y-12483619D01*
X15065238Y-12464572D01*
X15046190Y-12455048D01*
X15017619Y-12455048D01*
X14998571Y-12464572D01*
X14989047Y-12474095D01*
X15198571Y-12588381D02*
X15179523Y-12578857D01*
X15170000Y-12569333D01*
X15160476Y-12550286D01*
X15160476Y-12493143D01*
X15170000Y-12474095D01*
X15179523Y-12464572D01*
X15198571Y-12455048D01*
X15227143Y-12455048D01*
X15246190Y-12464572D01*
X15255714Y-12474095D01*
X15265238Y-12493143D01*
X15265238Y-12550286D01*
X15255714Y-12569333D01*
X15246190Y-12578857D01*
X15227143Y-12588381D01*
X15198571Y-12588381D01*
X15379523Y-12588381D02*
X15360476Y-12578857D01*
X15350952Y-12559810D01*
X15350952Y-12388381D01*
X15531904Y-12578857D02*
X15512857Y-12588381D01*
X15474762Y-12588381D01*
X15455714Y-12578857D01*
X15446190Y-12559810D01*
X15446190Y-12483619D01*
X15455714Y-12464572D01*
X15474762Y-12455048D01*
X15512857Y-12455048D01*
X15531904Y-12464572D01*
X15541428Y-12483619D01*
X15541428Y-12502667D01*
X15446190Y-12521714D01*
X15617619Y-12578857D02*
X15636666Y-12588381D01*
X15674762Y-12588381D01*
X15693809Y-12578857D01*
X15703333Y-12559810D01*
X15703333Y-12550286D01*
X15693809Y-12531238D01*
X15674762Y-12521714D01*
X15646190Y-12521714D01*
X15627143Y-12512191D01*
X15617619Y-12493143D01*
X15617619Y-12483619D01*
X15627143Y-12464572D01*
X15646190Y-12455048D01*
X15674762Y-12455048D01*
X15693809Y-12464572D01*
X15770000Y-12664572D02*
X15779523Y-12655048D01*
X15798571Y-12626476D01*
X15808095Y-12607429D01*
X15817619Y-12578857D01*
X15827143Y-12531238D01*
X15827143Y-12493143D01*
X15817619Y-12445524D01*
X15808095Y-12416953D01*
X15798571Y-12397905D01*
X15779523Y-12369333D01*
X15770000Y-12359810D01*
M02*
