%TF.GenerationSoftware,KiCad,Pcbnew,(6.0.1)*%
%TF.CreationDate,2022-03-03T11:38:52-05:00*%
%TF.ProjectId,Epyx-FastLoad,45707978-2d46-4617-9374-4c6f61642e6b,1*%
%TF.SameCoordinates,Original*%
%TF.FileFunction,Legend,Bot*%
%TF.FilePolarity,Positive*%
%FSLAX46Y46*%
G04 Gerber Fmt 4.6, Leading zero omitted, Abs format (unit mm)*
G04 Created by KiCad (PCBNEW (6.0.1)) date 2022-03-03 11:38:52*
%MOMM*%
%LPD*%
G01*
G04 APERTURE LIST*
%ADD10C,1.600000*%
%ADD11O,1.600000X1.600000*%
%ADD12R,1.700000X1.700000*%
%ADD13O,1.700000X1.700000*%
%ADD14R,1.600000X1.600000*%
%ADD15C,2.000000*%
G04 APERTURE END LIST*
%LPC*%
G36*
X168000000Y-107950550D02*
G01*
X110000000Y-107950550D01*
X110000000Y-98950550D01*
X168000000Y-98950550D01*
X168000000Y-107950550D01*
G37*
D10*
X123250000Y-90615000D03*
X123250000Y-85615000D03*
X123250000Y-64510000D03*
D11*
X123250000Y-61970000D03*
D10*
X120000000Y-64510000D03*
D11*
X120000000Y-61970000D03*
D12*
X143662500Y-63760000D03*
D13*
X143662500Y-61220000D03*
D10*
X123250000Y-80375000D03*
X123250000Y-75375000D03*
X113500000Y-64510000D03*
D11*
X113500000Y-61970000D03*
D12*
X147262500Y-66260000D03*
D13*
X147262500Y-63720000D03*
X147262500Y-61180000D03*
D10*
X120000000Y-68417500D03*
D11*
X120000000Y-70957500D03*
D10*
X113500000Y-68417500D03*
D11*
X113500000Y-70957500D03*
D14*
X127325000Y-90625000D03*
D11*
X129865000Y-90625000D03*
X132405000Y-90625000D03*
X134945000Y-90625000D03*
X137485000Y-90625000D03*
X140025000Y-90625000D03*
X142565000Y-90625000D03*
X145105000Y-90625000D03*
X147645000Y-90625000D03*
X150185000Y-90625000D03*
X152725000Y-90625000D03*
X155265000Y-90625000D03*
X157805000Y-90625000D03*
X160345000Y-90625000D03*
X162885000Y-90625000D03*
X165425000Y-90625000D03*
X165425000Y-75385000D03*
X162885000Y-75385000D03*
X160345000Y-75385000D03*
X157805000Y-75385000D03*
X155265000Y-75385000D03*
X152725000Y-75385000D03*
X150185000Y-75385000D03*
X147645000Y-75385000D03*
X145105000Y-75385000D03*
X142565000Y-75385000D03*
X140025000Y-75385000D03*
X137485000Y-75385000D03*
X134945000Y-75385000D03*
X132405000Y-75385000D03*
X129865000Y-75385000D03*
X127325000Y-75385000D03*
D10*
X132325000Y-71707500D03*
X127325000Y-71707500D03*
X116750000Y-68417500D03*
D11*
X116750000Y-70957500D03*
D10*
X116750000Y-64510000D03*
D11*
X116750000Y-61970000D03*
D14*
X112075000Y-75375000D03*
D11*
X112075000Y-77915000D03*
X112075000Y-80455000D03*
X112075000Y-82995000D03*
X112075000Y-85535000D03*
X112075000Y-88075000D03*
X112075000Y-90615000D03*
X119695000Y-90615000D03*
X119695000Y-88075000D03*
X119695000Y-85535000D03*
X119695000Y-82995000D03*
X119695000Y-80455000D03*
X119695000Y-77915000D03*
X119695000Y-75375000D03*
D15*
X166250000Y-65250000D03*
X159750000Y-65250000D03*
X166250000Y-60750000D03*
X159750000Y-60750000D03*
D12*
X127137500Y-63760000D03*
D13*
X127137500Y-61220000D03*
D12*
X150185000Y-71707500D03*
D13*
X152725000Y-71707500D03*
X155265000Y-71707500D03*
D12*
X150862500Y-63760000D03*
D13*
X150862500Y-61220000D03*
D10*
X123250000Y-68417500D03*
D11*
X123250000Y-70957500D03*
D12*
X130737500Y-63760000D03*
D13*
X130737500Y-61220000D03*
D12*
X134337500Y-63760000D03*
D13*
X134337500Y-61220000D03*
M02*
