%FSLAX45Y45*%
G04 Gerber Fmt 4.5, Leading zero omitted, Abs format (unit mm)*
G04 Created by KiCad (PCBNEW (6.0.1)) date 2022-03-03 11:39:04*
%MOMM*%
%LPD*%
G01*
G04 APERTURE LIST*
%TA.AperFunction,Profile*%
%ADD10C,0.038100*%
%TD*%
%TA.AperFunction,Profile*%
%ADD11C,0.050000*%
%TD*%
%ADD12C,0.200000*%
G04 APERTURE END LIST*
D10*
X11000000Y-5800000D02*
X16800000Y-5800000D01*
X16800000Y-5800000D02*
X16800000Y-10800000D01*
X16800000Y-10800000D02*
X11000000Y-10800000D01*
X11000000Y-10800000D02*
X11000000Y-5800000D01*
D11*
X14150000Y-6410000D02*
G75*
G03*
X14150000Y-6410000I-250000J0D01*
G01*
D12*
X11255714Y-11112381D02*
X11255714Y-10912381D01*
X11303333Y-10912381D01*
X11331904Y-10921905D01*
X11350952Y-10940953D01*
X11360476Y-10960000D01*
X11370000Y-10998095D01*
X11370000Y-11026667D01*
X11360476Y-11064762D01*
X11350952Y-11083810D01*
X11331904Y-11102857D01*
X11303333Y-11112381D01*
X11255714Y-11112381D01*
X11455714Y-11112381D02*
X11455714Y-10979048D01*
X11455714Y-11017143D02*
X11465238Y-10998095D01*
X11474762Y-10988572D01*
X11493809Y-10979048D01*
X11512857Y-10979048D01*
X11579523Y-11112381D02*
X11579523Y-10979048D01*
X11579523Y-10912381D02*
X11570000Y-10921905D01*
X11579523Y-10931429D01*
X11589047Y-10921905D01*
X11579523Y-10912381D01*
X11579523Y-10931429D01*
X11703333Y-11112381D02*
X11684285Y-11102857D01*
X11674762Y-11083810D01*
X11674762Y-10912381D01*
X11808095Y-11112381D02*
X11789047Y-11102857D01*
X11779523Y-11083810D01*
X11779523Y-10912381D01*
X12036666Y-11112381D02*
X12036666Y-10912381D01*
X12103333Y-11055238D01*
X12170000Y-10912381D01*
X12170000Y-11112381D01*
X12350952Y-11112381D02*
X12350952Y-11007619D01*
X12341428Y-10988572D01*
X12322381Y-10979048D01*
X12284285Y-10979048D01*
X12265238Y-10988572D01*
X12350952Y-11102857D02*
X12331904Y-11112381D01*
X12284285Y-11112381D01*
X12265238Y-11102857D01*
X12255714Y-11083810D01*
X12255714Y-11064762D01*
X12265238Y-11045715D01*
X12284285Y-11036191D01*
X12331904Y-11036191D01*
X12350952Y-11026667D01*
X12446190Y-10979048D02*
X12446190Y-11179048D01*
X12446190Y-10988572D02*
X12465238Y-10979048D01*
X12503333Y-10979048D01*
X12522381Y-10988572D01*
X12531904Y-10998095D01*
X12541428Y-11017143D01*
X12541428Y-11074286D01*
X12531904Y-11093334D01*
X12522381Y-11102857D01*
X12503333Y-11112381D01*
X12465238Y-11112381D01*
X12446190Y-11102857D01*
X12627143Y-11093334D02*
X12636666Y-11102857D01*
X12627143Y-11112381D01*
X12617619Y-11102857D01*
X12627143Y-11093334D01*
X12627143Y-11112381D01*
X12627143Y-10988572D02*
X12636666Y-10998095D01*
X12627143Y-11007619D01*
X12617619Y-10998095D01*
X12627143Y-10988572D01*
X12627143Y-11007619D01*
M02*
