M48
; DRILL file {KiCad (6.0.1)} date Thu Mar  3 11:39:02 2022
; FORMAT={-:-/ absolute / metric / decimal}
; #@! TF.CreationDate,2022-03-03T11:39:02-05:00
; #@! TF.GenerationSoftware,Kicad,Pcbnew,(6.0.1)
; #@! TF.FileFunction,Plated,1,2,PTH
FMAT,2
METRIC
; #@! TA.AperFunction,Plated,PTH,ViaDrill
T1C0.330
; #@! TA.AperFunction,Plated,PTH,ViaDrill
T2C0.400
; #@! TA.AperFunction,Plated,PTH,ComponentDrill
T3C0.800
; #@! TA.AperFunction,Plated,PTH,ComponentDrill
T4C1.000
; #@! TA.AperFunction,Plated,PTH,ComponentDrill
T5C1.100
%
G90
G05
T1
X116.14Y-97.621
X118.68Y-98.35
X137.4Y-96.278
X138.755Y-93.331
X139.0Y-97.751
X139.863Y-94.804
X146.62Y-98.35
X149.16Y-98.35
X151.7Y-98.35
X154.24Y-98.35
X156.78Y-98.35
X159.32Y-98.35
X161.86Y-98.35
T2
X124.605Y-69.687
X128.595Y-67.246
T3
X112.075Y-75.375
X112.075Y-77.915
X112.075Y-80.455
X112.075Y-82.995
X112.075Y-85.535
X112.075Y-88.075
X112.075Y-90.615
X113.5Y-61.97
X113.5Y-64.51
X113.5Y-68.418
X113.5Y-70.957
X116.75Y-61.97
X116.75Y-64.51
X116.75Y-68.418
X116.75Y-70.957
X119.695Y-75.375
X119.695Y-77.915
X119.695Y-80.455
X119.695Y-82.995
X119.695Y-85.535
X119.695Y-88.075
X119.695Y-90.615
X120.0Y-61.97
X120.0Y-64.51
X120.0Y-68.418
X120.0Y-70.957
X123.25Y-61.97
X123.25Y-64.51
X123.25Y-68.418
X123.25Y-70.957
X123.25Y-75.375
X123.25Y-80.375
X123.25Y-85.615
X123.25Y-90.615
X127.325Y-71.707
X127.325Y-75.385
X127.325Y-90.625
X129.865Y-75.385
X129.865Y-90.625
X132.325Y-71.707
X132.405Y-75.385
X132.405Y-90.625
X134.945Y-75.385
X134.945Y-90.625
X137.485Y-75.385
X137.485Y-90.625
X140.025Y-75.385
X140.025Y-90.625
X142.565Y-75.385
X142.565Y-90.625
X145.105Y-75.385
X145.105Y-90.625
X147.645Y-75.385
X147.645Y-90.625
X150.185Y-75.385
X150.185Y-90.625
X152.725Y-75.385
X152.725Y-90.625
X155.265Y-75.385
X155.265Y-90.625
X157.805Y-75.385
X157.805Y-90.625
X160.345Y-75.385
X160.345Y-90.625
X162.885Y-75.385
X162.885Y-90.625
X165.425Y-75.385
X165.425Y-90.625
T4
X127.137Y-61.22
X127.137Y-63.76
X130.737Y-61.22
X130.737Y-63.76
X134.338Y-61.22
X134.338Y-63.76
X143.662Y-61.22
X143.662Y-63.76
X147.262Y-61.18
X147.262Y-63.72
X147.262Y-66.26
X150.185Y-71.707
X150.862Y-61.22
X150.862Y-63.76
X152.725Y-71.707
X155.265Y-71.707
T5
X159.75Y-60.75
X159.75Y-65.25
X166.25Y-60.75
X166.25Y-65.25
T0
M30
